<?xml version="1.0" encoding="utf-8"?>
<!-- Generator: Adobe Illustrator 27.0.0, SVG Export Plug-In . SVG Version: 6.00 Build 0)  -->
<svg version="1.1" id="Layer_1" xmlns="http://www.w3.org/2000/svg" xmlns:xlink="http://www.w3.org/1999/xlink" x="0px" y="0px"
	 viewBox="0 0 56 32" style="enable-background:new 0 0 56 32;" xml:space="preserve">
<style type="text/css">
	.st0{display:none;fill:#FFFFFF;}
	.st1{fill:none;}
	.st2{fill:#FCFCFC;}
	.st3{font-family:'Herculanum';}
	.st4{font-size:40px;}
</style>
<path class="st0" d="M11.4,31.5c0.1,0.1,0.1,0.2,0,0.3S11.2,32,11.1,32H0.4c-0.1,0-0.2-0.1-0.3-0.2s-0.1-0.2,0-0.3l2-3.4V3.9l-2-3.4
	C0,0.4,0,0.3,0.1,0.2C0.1,0.1,0.2,0,0.4,0h10.8c0.1,0,0.2,0.1,0.3,0.2s0.1,0.2,0,0.3l-2,3.4v24.3L11.4,31.5z"/>
<path class="st0" d="M21.1,31.5c0.1,0.1,0.1,0.2,0,0.3c0,0.2-0.1,0.2-0.3,0.2h-3.5c-0.1,0-0.2-0.1-0.3-0.2c-0.1-0.1-0.1-0.2,0-0.3
	l1.8-2.8c0.1-0.1,0.2-0.2,0.3-0.2l0,0c0.1,0,0.2,0.1,0.3,0.2L21.1,31.5z M36.5,22.1c0,0.1,0,0.2,0,0.3L33,29.6
	c0,0.1-0.1,0.1-0.2,0.2h-0.1h-0.1c-0.1,0-0.2-0.1-0.3-0.2L20.8,6l-1,0.2c-0.1,0-0.2,0-0.3-0.1c-0.1-0.1-0.1-0.2-0.1-0.3v-2l-2.1-3.3
	c-0.1-0.1-0.1-0.2,0-0.3c0-0.1,0.1-0.2,0.3-0.2h8.2c0.1,0,0.2,0.1,0.3,0.2L36.5,22.1z M55.9,31.5c0.1,0.1,0.1,0.2,0,0.3
	c0,0.2-0.1,0.2-0.2,0.2H44.9c-0.1,0-0.2-0.1-0.3-0.2s-0.1-0.2,0-0.3l2-3.4v-22l-1.1-0.2c-0.1,0-0.2-0.1-0.2-0.2s0-0.2,0-0.3l2.5-5.2
	C47.9,0.1,48,0,48.1,0h7.5c0.1,0,0.2,0.1,0.3,0.2C56,0.3,56,0.4,56,0.5l-2,3.4v24.3L55.9,31.5z"/>
<rect x="4.2" y="2.5" class="st1" width="55.3" height="30.8"/>
<text transform="matrix(1 0 0 1 4.2311 26.5879)" class="st2 st3 st4">TT</text>
</svg>
